0
SECTION
2
HEADER
9
$ACADVER
1
AC1009
9
$INSBASE
10
0.0
20
0.0
30
0.0
9
$EXTMIN
10
0.0
20
0.0
30
0.0
9
$EXTMAX
10
1300.00
20
960.00
30
0.0
0
ENDSEC
0
SECTION
2
TABLES
0
TABLE
2
LAYER
70
10
0
LAYER
2
TABLERO
70
0
62
7
6
CONTINUOUS
0
LAYER
2
PIEZA
70
0
62
1
6
CONTINUOUS
0
LAYER
2
ETIQUETA
70
0
62
3
6
CONTINUOUS
0
LAYER
2
VETA
70
0
62
5
6
CONTINUOUS
0
LAYER
2
PERF
70
0
62
4
6
CONTINUOUS
0
LAYER
2
RETAZO
70
0
62
8
6
CONTINUOUS
0
LAYER
2
PERF_CANTO8
70
0
62
6
6
CONTINUOUS
0
LAYER
2
PERF_F10
70
0
62
4
6
CONTINUOUS
0
LAYER
2
PERF_F35
70
0
62
4
6
CONTINUOUS
0
LAYER
2
PERF_F5
70
0
62
4
6
CONTINUOUS
0
ENDTAB
0
ENDSEC
0
SECTION
2
ENTITIES
0
POLYLINE
8
PIEZA
66
1
70
1
0
VERTEX
8
PIEZA
10
0.00
20
180.00
0
VERTEX
8
PIEZA
10
800.00
20
180.00
0
VERTEX
8
PIEZA
10
800.00
20
680.00
0
VERTEX
8
PIEZA
10
0.00
20
680.00
0
SEQEND
8
PIEZA
0
TEXT
8
ETIQUETA
10
10.00
20
195.00
40
30.00
1
LAT-01  800x500
0
TEXT
8
ETIQUETA
10
10.00
20
233.00
40
30.00
1
M01 - A1
0
TEXT
8
ETIQUETA
10
10.00
20
271.00
40
30.00
1
Cantos: L1+L2
0
TEXT
8
ETIQUETA
10
10.00
20
309.00
40
30.00
1
MDF Blanco 18mm
0
LINE
8
VETA
10
160.00
20
430.00
11
640.00
21
430.00
0
LINE
8
VETA
10
640.00
20
430.00
11
600.00
21
450.00
0
LINE
8
VETA
10
640.00
20
430.00
11
600.00
21
410.00
0
CIRCLE
8
PERF_F10
10
50.00
20
280.00
40
5.00
0
CIRCLE
8
PERF_F35
10
750.00
20
580.00
40
17.50
0
CIRCLE
8
PERF_CANTO8
10
250.00
20
180.00
40
4.00
0
POLYLINE
8
PIEZA
66
1
70
1
0
VERTEX
8
PIEZA
10
900.00
20
180.00
0
VERTEX
8
PIEZA
10
1200.00
20
180.00
0
VERTEX
8
PIEZA
10
1200.00
20
580.00
0
VERTEX
8
PIEZA
10
900.00
20
580.00
0
SEQEND
8
PIEZA
0
TEXT
8
ETIQUETA
10
910.00
20
195.00
40
30.00
1
SEP-01  400x300
0
TEXT
8
ETIQUETA
10
910.00
20
233.00
40
30.00
1
M01 - A2
0
TEXT
8
ETIQUETA
10
910.00
20
271.00
40
30.00
1
Sin cantos
0
TEXT
8
ETIQUETA
10
910.00
20
309.00
40
30.00
1
MDF Blanco 18mm
0
ENDSEC
0
EOF
