0
SECTION
2
HEADER
9
$ACADVER
1
AC1009
9
$INSBASE
10
0.0
20
0.0
30
0.0
9
$EXTMIN
10
0.0
20
0.0
30
0.0
9
$EXTMAX
10
2440.00
20
1950.00
30
0.0
0
ENDSEC
0
SECTION
2
TABLES
0
TABLE
2
LAYER
70
6
0
LAYER
2
TABLERO
70
0
62
7
6
CONTINUOUS
0
LAYER
2
PIEZA
70
0
62
1
6
CONTINUOUS
0
LAYER
2
ETIQUETA
70
0
62
3
6
CONTINUOUS
0
LAYER
2
VETA
70
0
62
5
6
CONTINUOUS
0
LAYER
2
PERF
70
0
62
4
6
CONTINUOUS
0
LAYER
2
RETAZO
70
0
62
8
6
CONTINUOUS
0
ENDTAB
0
ENDSEC
0
SECTION
2
ENTITIES
0
POLYLINE
8
TABLERO
66
1
70
1
0
VERTEX
8
TABLERO
10
0.00
20
0.00
0
VERTEX
8
TABLERO
10
2440.00
20
0.00
0
VERTEX
8
TABLERO
10
2440.00
20
1830.00
0
VERTEX
8
TABLERO
10
0.00
20
1830.00
0
SEQEND
8
TABLERO
0
TEXT
8
ETIQUETA
10
0.00
20
1890.00
40
45.00
1
TABLERO #1 - MDF Blanco 18mm 18mm
0
POLYLINE
8
PIEZA
66
1
70
1
0
VERTEX
8
PIEZA
10
10.00
20
10.00
0
VERTEX
8
PIEZA
10
810.00
20
10.00
0
VERTEX
8
PIEZA
10
810.00
20
510.00
0
VERTEX
8
PIEZA
10
10.00
20
510.00
0
SEQEND
8
PIEZA
0
TEXT
8
ETIQUETA
10
20.00
20
25.00
40
30.00
1
LAT-01  800x500
0
TEXT
8
ETIQUETA
10
20.00
20
63.00
40
30.00
1
M01 - A1
0
TEXT
8
ETIQUETA
10
20.00
20
101.00
40
30.00
1
Cantos: L1+L2
0
LINE
8
VETA
10
170.00
20
260.00
11
650.00
21
260.00
0
LINE
8
VETA
10
650.00
20
260.00
11
610.00
21
280.00
0
LINE
8
VETA
10
650.00
20
260.00
11
610.00
21
240.00
0
CIRCLE
8
PERF
10
60.00
20
110.00
40
5.00
0
CIRCLE
8
PERF
10
760.00
20
410.00
40
17.50
0
POLYLINE
8
PIEZA
66
1
70
1
0
VERTEX
8
PIEZA
10
900.00
20
10.00
0
VERTEX
8
PIEZA
10
1200.00
20
10.00
0
VERTEX
8
PIEZA
10
1200.00
20
410.00
0
VERTEX
8
PIEZA
10
900.00
20
410.00
0
SEQEND
8
PIEZA
0
TEXT
8
ETIQUETA
10
910.00
20
25.00
40
30.00
1
SEP-01  400x300
0
TEXT
8
ETIQUETA
10
910.00
20
63.00
40
30.00
1
M01 - A2
0
TEXT
8
ETIQUETA
10
910.00
20
101.00
40
30.00
1
Sin cantos
0
POLYLINE
8
RETAZO
66
1
70
1
0
VERTEX
8
RETAZO
10
10.00
20
1400.00
0
VERTEX
8
RETAZO
10
2410.00
20
1400.00
0
VERTEX
8
RETAZO
10
2410.00
20
1800.00
0
VERTEX
8
RETAZO
10
10.00
20
1800.00
0
SEQEND
8
RETAZO
0
TEXT
8
ETIQUETA
10
20.00
20
1410.00
40
30.00
1
RETAZO 2400x400
0
ENDSEC
0
EOF
